Coordinates
version=1
nRows=19
nColumns=24
inDegrees=yes

Units are S.I. units (second, meters, Newtons, ...)
Angles are in degrees.

endheader
time	pelvis_tilt	pelvis_list	pelvis_rotation	pelvis_tx	pelvis_ty	pelvis_tz	hip_flexion_r	hip_adduction_r	hip_rotation_r	knee_angle_r	ankle_angle_r	subtalar_angle_r	mtp_angle_r	hip_flexion_l	hip_adduction_l	hip_rotation_l	knee_angle_l	ankle_angle_l	subtalar_angle_l	mtp_angle_l	lumbar_extension	lumbar_bending	lumbar_rotation
      1.41633333	      0.86000518	     -0.35620747	     -2.52061418	      0.49110989	      1.02344923	      0.35030075	     17.30533048	      1.99342765	      1.39472466	    -21.06781568	      2.79847465	    -17.29328167	      1.53950002	    -13.76568668	      5.57430220	      2.02529662	      0.13888261	      3.79522376	     -9.99968056	     -0.46048253	    -12.66854512	      8.32935911	     -7.42601031
      1.42050000	      0.69918455	     -0.34820763	     -2.50718149	      0.49615406	      1.02296476	      0.35034195	     17.33645062	      2.04193441	      1.36276579	    -19.25168255	      2.43753180	    -17.01815520	      1.60398720	    -13.95623380	      5.56883258	      1.88985137	      0.26947084	      3.71393017	     -9.78050145	     -0.33854725	    -12.50776810	      8.36963011	     -7.46960933
      1.42466667	      0.55345051	     -0.31903144	     -2.49817110	      0.50121284	      1.02243973	      0.35038463	     17.35358864	      2.06598228	      1.30104261	    -17.46532814	      2.08457064	    -16.69698246	      1.67788093	    -14.15345128	      5.58861892	      1.75675365	      0.38190962	      3.62898432	     -9.57955821	     -0.22448452	    -12.36000321	      8.37948924	     -7.50526372
      1.42883333	      0.40904762	     -0.28043341	     -2.48503016	      0.50630159	      1.02188728	      0.35042061	     17.35976528	      2.08057324	      1.22336048	    -15.69352137	      1.70301489	    -16.36406814	      1.77249868	    -14.34594079	      5.61824924	      1.64202593	      0.47875904	      3.55122186	     -9.37365591	     -0.09627427	    -12.21260619	      8.37548034	     -7.55797663
      1.43300000	      0.25604495	     -0.22421302	     -2.46913820	      0.51141422	      1.02126271	      0.35045014	     17.38229045	      2.07663349	      1.11532292	    -13.97563587	      1.34794942	    -15.97646421	      1.88066395	    -14.51597901	      5.66615597	      1.54180758	      0.54648282	      3.47792084	     -9.19296679	      0.03557205	    -12.05096047	      8.35190996	     -7.60366951
      1.43716667	      0.15787276	     -0.16501123	     -2.45483157	      0.51654707	      1.02068765	      0.35047754	     17.34051282	      2.06987591	      0.99177422	    -12.29028416	      0.99730510	    -15.56071801	      2.01598464	    -14.74284665	      5.72085149	      1.44587690	      0.60901588	      3.40876671	     -9.00668589	      0.18938575	    -11.95319151	      8.32202932	     -7.66178979
      1.44133333	      0.00136031	     -0.07024917	     -2.45255963	      0.52170361	      1.01996780	      0.35051317	     17.39408362	      2.03134236	      0.83369208	    -10.71922561	      0.69932940	    -15.04807430	      2.07113528	    -14.89517620	      5.81546064	      1.36934331	      0.64811576	      3.31027230	     -8.90568450	      0.24891898	    -11.76815619	      8.23169708	     -7.65861675
      1.44550000	     -0.04427730	     -0.01151105	     -2.43101409	      0.52689208	      1.01938463	      0.35054017	     17.29491779	      2.02934833	      0.68482955	     -9.14066562	      0.41582358	    -14.58717464	      2.29603293	    -15.16082946	      5.86893684	      1.28661964	      0.66530592	      3.28982090	     -8.68360584	      0.48770538	    -11.74006408	      8.20618532	     -7.78822455
      1.44966667	     -0.19378807	      0.09092566	     -2.41206521	      0.53209550	      1.01862966	      0.35055013	     17.34734758	      1.98712534	      0.50496215	     -7.69970833	      0.17855719	    -14.05775547	      2.35993581	    -15.28907886	      5.96868972	      1.24671665	      0.63216264	      3.20456605	     -8.60950819	      0.55411400	    -11.56171547	      8.12897821	     -7.76410736
      1.45383333	     -0.28729060	      0.17893403	     -2.38562503	      0.53732414	      1.01791999	      0.35054426	     17.34212598	      1.95896634	      0.29876719	     -6.32967325	     -0.00256352	    -13.49825357	      2.44476399	    -15.47253350	      6.05361485	      1.21702048	      0.58354339	      3.15481142	     -8.51211444	      0.64318465	    -11.45825097	      8.06302608	     -7.79179430
      1.45800000	     -0.31563861	      0.24365285	     -2.34251508	      0.54256957	      1.01729403	      0.35052220	     17.26898518	      1.95103595	      0.06929692	     -5.03877343	     -0.07324261	    -12.85637187	      2.61892285	    -15.71068111	      6.11018749	      1.19363315	      0.49693687	      3.12781281	     -8.36271452	      0.82907379	    -11.46279837	      8.04792255	     -7.88413011
      1.46216667	     -0.42821914	      0.34762910	     -2.33681247	      0.54784688	      1.01651879	      0.35055388	     17.31177217	      1.92325418	     -0.08642728	     -3.85564545	     -0.20047137	    -12.32040702	      2.70727551	    -15.85476353	      6.21591384	      1.16677858	      0.40625147	      3.08495693	     -8.29801599	      0.92614103	    -11.31017111	      7.95618070	     -7.89082825
      1.46633333	     -0.45568462	      0.42716219	     -2.29275119	      0.55312768	      1.01586544	      0.35052316	     17.27735794	      1.90412810	     -0.33151006	     -2.78052838	     -0.20852373	    -11.67189060	      5.86452178	    -16.05487490	      6.28598001	      1.10407867	      0.24411613	      3.02365079	     -8.10047893	      4.54214663	    -11.30140623	      7.90581129	     -7.97463461
      1.47050000	     -0.52146917	      0.48123644	     -2.26848989	      0.55844555	      1.01515161	      0.35051477	     17.28078393	      1.92483961	     -0.49439010	     -1.77759591	     -0.19809262	    -11.08152995	      5.89742909	    -16.22225819	      6.33696749	      1.12064308	      0.08571201	      2.98978585	     -8.08976973	      4.55303186	    -11.23667855	      7.90233949	     -7.99130918
      1.47466667	     -0.57905911	      0.54596396	     -2.23632781	      0.56378233	      1.01446335	      0.35050300	     17.28416997	      1.93442476	     -0.64944683	     -0.86538930	     -0.19259065	    -10.53879402	      5.92820388	    -16.37893703	      6.39659499	      1.12750630	     -0.11060549	      2.97108405	     -8.04947777	      4.57838135	    -11.16472024	      7.85879343	     -8.01282887
      1.47883333	     -0.62606697	      0.59503642	     -2.19974808	      0.56913823	      1.01378690	      0.35047227	     17.28809618	      1.95677322	     -0.78820454	     -0.06209864	     -0.10661934	     -9.96134475	      5.97058071	    -16.53028813	      6.43875352	      1.14415357	     -0.34714607	      2.96595784	     -7.98558894	      4.62791675	    -11.11936316	      7.85710501	     -8.04756002
      1.48300000	     -0.66563221	      0.64220282	     -2.17032780	      0.57450133	      1.01312924	      0.35046010	     17.29889841	      1.98310282	     -0.88498472	      0.62816707	      0.05148828	     -9.37495085	      6.04192643	    -16.67813180	      6.47959952	      1.16186770	     -0.60682194	      2.98651188	     -7.89403700	      4.73595874	    -11.08033227	      7.85193115	     -8.09967758
      1.48716667	     -0.72066096	      0.66975280	     -2.14438069	      0.57990352	      1.01246605	      0.35046256	     17.30027280	      2.03301430	     -0.86885081	      1.29493242	      0.06088242	     -9.03084608	      6.06537961	    -16.79600605	      6.50114358	      1.19154170	     -0.89894793	      2.98256586	     -7.88616992	      4.77741361	    -11.01420781	      7.86029738	     -8.09079457
      1.49133333	     -0.75532995	      0.68814346	     -2.10339396	      0.58533304	      1.01184819	      0.35044535	     17.28543419	      2.08408599	     -0.86202742	      1.86357761	      0.11920533	     -8.66199857	      6.09334563	    -16.91931845	      6.50889089	      1.22327647	     -1.22671574	      2.99632724	     -7.85594638	      4.83406636	    -10.97262912	      7.88494474	     -8.10141295
